<svg width="251" height="252" viewBox="0 0 251 252" fill="none" xmlns="http://www.w3.org/2000/svg">
<rect x="23.2739" y="37.0938" width="206.714" height="190.592" fill="white"/>
<mask id="path-2-outside-1_1_130" maskUnits="userSpaceOnUse" x="0" y="0" width="251" height="252" fill="black">
<rect fill="white" width="251" height="252"/>
<path fill-rule="evenodd" clip-rule="evenodd" d="M50.2742 6.42062C47.899 6.69816 43.6236 7.58835 40.7734 8.39909C24.0952 13.1449 13.1629 23.8612 7.85458 40.6684L6.23196 45.8057L6.07246 123.784C5.91354 201.394 5.91872 201.785 7.12561 206.7C10.7037 221.269 19.4899 232.694 31.8559 238.857C35.1771 240.512 40.2264 242.579 43.0766 243.45L48.2589 245.034H124.841H201.423L206.317 243.521C213.149 241.408 218.116 239.317 222.152 236.854C233.656 229.834 241.193 218.321 244.047 203.408C245.334 196.682 245.31 54.1399 244.02 46.1886C242.867 39.082 241.332 34.6783 238.08 29.1546C231.959 18.7584 221.692 11.1238 208.836 7.40985L204.302 6.0999L129.447 6.00834C88.2773 5.95767 52.6494 6.14308 50.2742 6.42062ZM213.476 50.4554C215.148 51.0444 217.323 52.4626 218.764 53.9039C221.917 57.057 223.016 60.6442 223.016 67.7911V73.1565H216.682H210.348V69.7875C210.348 63.381 208.86 61.6404 203.385 61.6404C199.933 61.6404 197.976 63.2192 197.36 66.5025C196.798 69.4984 197.338 73.9874 198.466 75.7096C198.995 76.5163 202.468 79.1644 206.183 81.5938C220.86 91.1901 222.715 93.4824 223.379 102.844C224.21 114.566 221.386 121.155 214.091 124.516C211.52 125.7 210.349 125.843 203.151 125.843C195.952 125.843 194.781 125.7 192.21 124.516C186.128 121.714 183.582 117.419 182.937 108.875L182.541 103.637L189.679 103.8L196.817 103.962L197.105 107.474C197.263 109.405 197.743 111.406 198.17 111.921C199.99 114.111 206.043 113.789 208.458 111.374C209.779 110.054 209.877 109.596 209.681 105.706C209.52 102.505 209.188 101.161 208.324 100.197C207.695 99.4956 203.501 96.4812 199.003 93.4991C184.929 84.1682 183.285 81.6767 183.285 69.6723C183.285 64.1342 183.515 62.2208 184.496 59.5997C187.455 51.6905 193.08 48.7861 204.59 49.2249C208.298 49.3659 211.734 49.8415 213.476 50.4554ZM78.0061 57.1168C78.6309 60.7133 79.5159 65.599 79.9725 67.9742C80.4291 70.3494 81.8911 78.447 83.2218 85.9682C84.5519 93.4899 85.8123 99.6435 86.0219 99.6435C86.4647 99.6435 86.4872 99.5146 89.4727 79.4904C90.7239 71.098 92.2544 61.3813 92.8734 57.8976C93.4924 54.414 94.0072 51.2546 94.0175 50.8768C94.0302 50.392 96.1578 50.1381 101.248 50.0131L108.461 49.8364L108.163 51.2759C107.999 52.0676 106.966 58.3019 105.868 65.1292C104.771 71.9571 103.734 77.9167 103.564 78.3727C103.394 78.8293 102.082 86.328 100.649 95.0371C99.2159 103.746 97.4574 114.24 96.7423 118.357L95.4421 125.843L87.0031 126.002L78.5635 126.161L78.1691 123.41C77.7908 120.776 76.7428 114.806 72.4283 90.7186C71.3504 84.7014 70.4596 79.081 70.4481 78.2288C70.4257 76.5676 69.4088 75.466 69.0529 76.719C68.9349 77.1347 67.7315 84.0824 66.3795 92.1581C65.0269 100.234 63.721 107.386 63.4774 108.053C63.2333 108.719 62.4807 112.606 61.8041 116.69C61.1275 120.774 60.4412 124.568 60.2794 125.123C60.018 126.018 59.1203 126.131 52.2383 126.131C43.1273 126.131 43.9374 126.847 42.4789 117.494C41.9607 114.168 41.1402 109.504 40.6559 107.129C39.8613 103.233 38.0464 92.9279 33.0006 63.6557C32.0724 58.2719 31.1626 53.0246 30.9789 51.9956L30.6444 50.1243H37.8575C44.8714 50.1243 45.0775 50.16 45.3464 51.4198C46.2268 55.5495 46.9311 60.0569 47.979 68.2621C50.1872 85.5593 51.5277 94.7475 52.2636 97.6282L52.9989 100.507L53.7129 96.1887C54.105 93.8135 55.0516 88.6313 55.8152 84.6726C57.1153 77.9351 62.3177 50.5625 62.3511 50.2866C62.3903 49.9596 75.9586 49.883 76.3835 50.2072C76.6513 50.4116 77.3808 53.5209 78.0061 57.1168ZM142.691 81.3352C142.691 105.053 142.514 113.184 141.956 115.022C140.823 118.753 137.892 122.155 134.166 124.06C131.318 125.517 130.064 125.781 124.895 126.01C117.236 126.351 113.274 125.247 109.843 121.815C106.827 118.799 105.863 115.463 105.85 107.993L105.839 102.235L112.317 102.072L118.795 101.909V105.985C118.795 109.545 118.974 110.24 120.209 111.473C121.986 113.251 125.516 113.402 127.512 111.787L128.872 110.686L129.029 80.2614L129.188 49.8364L135.939 49.9538L142.691 50.0713V81.3352ZM175.8 80.9713C175.8 115.535 175.829 115.233 172.011 119.694C168.489 123.808 161.719 126.086 152.912 126.119L149.889 126.131V119.797C149.889 116.313 149.885 113.268 149.88 113.031C149.876 112.794 152.102 112.47 154.827 112.311C162.631 111.858 161.98 114.814 161.98 79.8105C161.98 63.5883 162.089 50.2083 162.221 50.0765C162.352 49.9446 165.462 49.8364 169.13 49.8364H175.8V80.9713ZM213.819 139.101C214.763 140.006 215.686 141.632 215.899 142.767C216.536 146.166 213.39 158.26 210.225 164.569C208.812 167.387 200.941 171.001 201.951 168.369C202.487 166.973 206.893 150.327 206.893 149.699C206.893 148.969 174.37 149.007 171.731 149.74C168.804 150.553 166.392 152.598 159.671 159.967C153.526 166.705 149.355 169.811 144.83 171.017C142.341 171.68 113.545 171.934 65.4265 171.718L43.4399 171.619L43.4192 158.232C43.3962 143.245 43.7538 140.251 45.7518 138.716C47.0399 137.727 50.6991 137.666 119.371 137.503C159.116 137.409 196.244 137.364 201.878 137.404L212.122 137.475L213.819 139.101ZM184.154 156.571C189.537 159.016 192.608 164.675 192.96 172.801C193.464 184.408 189.086 192.314 181.139 194.149C175.356 195.484 170.06 192.543 166.857 186.221C165.222 182.995 165.147 182.52 165.147 175.362C165.147 168.291 165.238 167.691 166.795 164.52C170.646 156.678 177.49 153.544 184.154 156.571ZM174.245 166.005C172.188 168.263 171.769 169.698 171.769 174.489C171.769 179.617 172.501 181.693 175.002 183.66C179.49 187.19 184.027 182.834 184.367 174.668C184.508 171.278 182.649 166.177 180.939 165.262C178.997 164.223 175.516 164.609 174.245 166.005ZM156.164 185.46C156.813 187.531 158.121 190.252 159.071 191.506C160.02 192.761 160.804 193.992 160.813 194.241C160.821 194.49 138.61 194.62 111.454 194.529C56.5447 194.345 60.28 194.622 55.5889 190.384C53.1331 188.166 51.2208 184.364 50.5759 180.419L50.1792 177.991L98.7386 177.822C144.557 177.663 147.46 177.593 150.176 176.575C151.76 175.982 153.315 175.258 153.631 174.965C154.008 174.617 154.341 175.688 154.595 178.065C154.808 180.062 155.514 183.39 156.164 185.46ZM113.613 200.665C113.613 201.616 111.06 204.945 109.937 205.456C108.667 206.035 108.555 206.461 108.331 211.587C108.051 217.985 107.275 219.507 103.237 221.57C100.768 222.832 100.231 222.866 82.7467 222.866H64.7925L64.7131 216.82L64.633 210.774H78.5082C86.972 210.774 92.8181 210.541 93.4976 210.178C94.9837 209.382 94.9665 206.242 93.4596 203.289C92.8262 202.047 92.308 200.891 92.308 200.72C92.308 200.549 97.1016 200.41 102.96 200.41C108.819 200.41 113.613 200.524 113.613 200.665Z"/>
</mask>
<path fill-rule="evenodd" clip-rule="evenodd" d="M50.2742 6.42062C47.899 6.69816 43.6236 7.58835 40.7734 8.39909C24.0952 13.1449 13.1629 23.8612 7.85458 40.6684L6.23196 45.8057L6.07246 123.784C5.91354 201.394 5.91872 201.785 7.12561 206.7C10.7037 221.269 19.4899 232.694 31.8559 238.857C35.1771 240.512 40.2264 242.579 43.0766 243.45L48.2589 245.034H124.841H201.423L206.317 243.521C213.149 241.408 218.116 239.317 222.152 236.854C233.656 229.834 241.193 218.321 244.047 203.408C245.334 196.682 245.31 54.1399 244.02 46.1886C242.867 39.082 241.332 34.6783 238.08 29.1546C231.959 18.7584 221.692 11.1238 208.836 7.40985L204.302 6.0999L129.447 6.00834C88.2773 5.95767 52.6494 6.14308 50.2742 6.42062ZM213.476 50.4554C215.148 51.0444 217.323 52.4626 218.764 53.9039C221.917 57.057 223.016 60.6442 223.016 67.7911V73.1565H216.682H210.348V69.7875C210.348 63.381 208.86 61.6404 203.385 61.6404C199.933 61.6404 197.976 63.2192 197.36 66.5025C196.798 69.4984 197.338 73.9874 198.466 75.7096C198.995 76.5163 202.468 79.1644 206.183 81.5938C220.86 91.1901 222.715 93.4824 223.379 102.844C224.21 114.566 221.386 121.155 214.091 124.516C211.52 125.7 210.349 125.843 203.151 125.843C195.952 125.843 194.781 125.7 192.21 124.516C186.128 121.714 183.582 117.419 182.937 108.875L182.541 103.637L189.679 103.8L196.817 103.962L197.105 107.474C197.263 109.405 197.743 111.406 198.17 111.921C199.99 114.111 206.043 113.789 208.458 111.374C209.779 110.054 209.877 109.596 209.681 105.706C209.52 102.505 209.188 101.161 208.324 100.197C207.695 99.4956 203.501 96.4812 199.003 93.4991C184.929 84.1682 183.285 81.6767 183.285 69.6723C183.285 64.1342 183.515 62.2208 184.496 59.5997C187.455 51.6905 193.08 48.7861 204.59 49.2249C208.298 49.3659 211.734 49.8415 213.476 50.4554ZM78.0061 57.1168C78.6309 60.7133 79.5159 65.599 79.9725 67.9742C80.4291 70.3494 81.8911 78.447 83.2218 85.9682C84.5519 93.4899 85.8123 99.6435 86.0219 99.6435C86.4647 99.6435 86.4872 99.5146 89.4727 79.4904C90.7239 71.098 92.2544 61.3813 92.8734 57.8976C93.4924 54.414 94.0072 51.2546 94.0175 50.8768C94.0302 50.392 96.1578 50.1381 101.248 50.0131L108.461 49.8364L108.163 51.2759C107.999 52.0676 106.966 58.3019 105.868 65.1292C104.771 71.9571 103.734 77.9167 103.564 78.3727C103.394 78.8293 102.082 86.328 100.649 95.0371C99.2159 103.746 97.4574 114.24 96.7423 118.357L95.4421 125.843L87.0031 126.002L78.5635 126.161L78.1691 123.41C77.7908 120.776 76.7428 114.806 72.4283 90.7186C71.3504 84.7014 70.4596 79.081 70.4481 78.2288C70.4257 76.5676 69.4088 75.466 69.0529 76.719C68.9349 77.1347 67.7315 84.0824 66.3795 92.1581C65.0269 100.234 63.721 107.386 63.4774 108.053C63.2333 108.719 62.4807 112.606 61.8041 116.69C61.1275 120.774 60.4412 124.568 60.2794 125.123C60.018 126.018 59.1203 126.131 52.2383 126.131C43.1273 126.131 43.9374 126.847 42.4789 117.494C41.9607 114.168 41.1402 109.504 40.6559 107.129C39.8613 103.233 38.0464 92.9279 33.0006 63.6557C32.0724 58.2719 31.1626 53.0246 30.9789 51.9956L30.6444 50.1243H37.8575C44.8714 50.1243 45.0775 50.16 45.3464 51.4198C46.2268 55.5495 46.9311 60.0569 47.979 68.2621C50.1872 85.5593 51.5277 94.7475 52.2636 97.6282L52.9989 100.507L53.7129 96.1887C54.105 93.8135 55.0516 88.6313 55.8152 84.6726C57.1153 77.9351 62.3177 50.5625 62.3511 50.2866C62.3903 49.9596 75.9586 49.883 76.3835 50.2072C76.6513 50.4116 77.3808 53.5209 78.0061 57.1168ZM142.691 81.3352C142.691 105.053 142.514 113.184 141.956 115.022C140.823 118.753 137.892 122.155 134.166 124.06C131.318 125.517 130.064 125.781 124.895 126.01C117.236 126.351 113.274 125.247 109.843 121.815C106.827 118.799 105.863 115.463 105.85 107.993L105.839 102.235L112.317 102.072L118.795 101.909V105.985C118.795 109.545 118.974 110.24 120.209 111.473C121.986 113.251 125.516 113.402 127.512 111.787L128.872 110.686L129.029 80.2614L129.188 49.8364L135.939 49.9538L142.691 50.0713V81.3352ZM175.8 80.9713C175.8 115.535 175.829 115.233 172.011 119.694C168.489 123.808 161.719 126.086 152.912 126.119L149.889 126.131V119.797C149.889 116.313 149.885 113.268 149.88 113.031C149.876 112.794 152.102 112.47 154.827 112.311C162.631 111.858 161.98 114.814 161.98 79.8105C161.98 63.5883 162.089 50.2083 162.221 50.0765C162.352 49.9446 165.462 49.8364 169.13 49.8364H175.8V80.9713ZM213.819 139.101C214.763 140.006 215.686 141.632 215.899 142.767C216.536 146.166 213.39 158.26 210.225 164.569C208.812 167.387 200.941 171.001 201.951 168.369C202.487 166.973 206.893 150.327 206.893 149.699C206.893 148.969 174.37 149.007 171.731 149.74C168.804 150.553 166.392 152.598 159.671 159.967C153.526 166.705 149.355 169.811 144.83 171.017C142.341 171.68 113.545 171.934 65.4265 171.718L43.4399 171.619L43.4192 158.232C43.3962 143.245 43.7538 140.251 45.7518 138.716C47.0399 137.727 50.6991 137.666 119.371 137.503C159.116 137.409 196.244 137.364 201.878 137.404L212.122 137.475L213.819 139.101ZM184.154 156.571C189.537 159.016 192.608 164.675 192.96 172.801C193.464 184.408 189.086 192.314 181.139 194.149C175.356 195.484 170.06 192.543 166.857 186.221C165.222 182.995 165.147 182.52 165.147 175.362C165.147 168.291 165.238 167.691 166.795 164.52C170.646 156.678 177.49 153.544 184.154 156.571ZM174.245 166.005C172.188 168.263 171.769 169.698 171.769 174.489C171.769 179.617 172.501 181.693 175.002 183.66C179.49 187.19 184.027 182.834 184.367 174.668C184.508 171.278 182.649 166.177 180.939 165.262C178.997 164.223 175.516 164.609 174.245 166.005ZM156.164 185.46C156.813 187.531 158.121 190.252 159.071 191.506C160.02 192.761 160.804 193.992 160.813 194.241C160.821 194.49 138.61 194.62 111.454 194.529C56.5447 194.345 60.28 194.622 55.5889 190.384C53.1331 188.166 51.2208 184.364 50.5759 180.419L50.1792 177.991L98.7386 177.822C144.557 177.663 147.46 177.593 150.176 176.575C151.76 175.982 153.315 175.258 153.631 174.965C154.008 174.617 154.341 175.688 154.595 178.065C154.808 180.062 155.514 183.39 156.164 185.46ZM113.613 200.665C113.613 201.616 111.06 204.945 109.937 205.456C108.667 206.035 108.555 206.461 108.331 211.587C108.051 217.985 107.275 219.507 103.237 221.57C100.768 222.832 100.231 222.866 82.7467 222.866H64.7925L64.7131 216.82L64.633 210.774H78.5082C86.972 210.774 92.8181 210.541 93.4976 210.178C94.9837 209.382 94.9665 206.242 93.4596 203.289C92.8262 202.047 92.308 200.891 92.308 200.72C92.308 200.549 97.1016 200.41 102.96 200.41C108.819 200.41 113.613 200.524 113.613 200.665Z" fill="#161616"/>
<path fill-rule="evenodd" clip-rule="evenodd" d="M50.2742 6.42062C47.899 6.69816 43.6236 7.58835 40.7734 8.39909C24.0952 13.1449 13.1629 23.8612 7.85458 40.6684L6.23196 45.8057L6.07246 123.784C5.91354 201.394 5.91872 201.785 7.12561 206.7C10.7037 221.269 19.4899 232.694 31.8559 238.857C35.1771 240.512 40.2264 242.579 43.0766 243.45L48.2589 245.034H124.841H201.423L206.317 243.521C213.149 241.408 218.116 239.317 222.152 236.854C233.656 229.834 241.193 218.321 244.047 203.408C245.334 196.682 245.31 54.1399 244.02 46.1886C242.867 39.082 241.332 34.6783 238.08 29.1546C231.959 18.7584 221.692 11.1238 208.836 7.40985L204.302 6.0999L129.447 6.00834C88.2773 5.95767 52.6494 6.14308 50.2742 6.42062ZM213.476 50.4554C215.148 51.0444 217.323 52.4626 218.764 53.9039C221.917 57.057 223.016 60.6442 223.016 67.7911V73.1565H216.682H210.348V69.7875C210.348 63.381 208.86 61.6404 203.385 61.6404C199.933 61.6404 197.976 63.2192 197.36 66.5025C196.798 69.4984 197.338 73.9874 198.466 75.7096C198.995 76.5163 202.468 79.1644 206.183 81.5938C220.86 91.1901 222.715 93.4824 223.379 102.844C224.21 114.566 221.386 121.155 214.091 124.516C211.52 125.7 210.349 125.843 203.151 125.843C195.952 125.843 194.781 125.7 192.21 124.516C186.128 121.714 183.582 117.419 182.937 108.875L182.541 103.637L189.679 103.8L196.817 103.962L197.105 107.474C197.263 109.405 197.743 111.406 198.17 111.921C199.99 114.111 206.043 113.789 208.458 111.374C209.779 110.054 209.877 109.596 209.681 105.706C209.52 102.505 209.188 101.161 208.324 100.197C207.695 99.4956 203.501 96.4812 199.003 93.4991C184.929 84.1682 183.285 81.6767 183.285 69.6723C183.285 64.1342 183.515 62.2208 184.496 59.5997C187.455 51.6905 193.08 48.7861 204.59 49.2249C208.298 49.3659 211.734 49.8415 213.476 50.4554ZM78.0061 57.1168C78.6309 60.7133 79.5159 65.599 79.9725 67.9742C80.4291 70.3494 81.8911 78.447 83.2218 85.9682C84.5519 93.4899 85.8123 99.6435 86.0219 99.6435C86.4647 99.6435 86.4872 99.5146 89.4727 79.4904C90.7239 71.098 92.2544 61.3813 92.8734 57.8976C93.4924 54.414 94.0072 51.2546 94.0175 50.8768C94.0302 50.392 96.1578 50.1381 101.248 50.0131L108.461 49.8364L108.163 51.2759C107.999 52.0676 106.966 58.3019 105.868 65.1292C104.771 71.9571 103.734 77.9167 103.564 78.3727C103.394 78.8293 102.082 86.328 100.649 95.0371C99.2159 103.746 97.4574 114.24 96.7423 118.357L95.4421 125.843L87.0031 126.002L78.5635 126.161L78.1691 123.41C77.7908 120.776 76.7428 114.806 72.4283 90.7186C71.3504 84.7014 70.4596 79.081 70.4481 78.2288C70.4257 76.5676 69.4088 75.466 69.0529 76.719C68.9349 77.1347 67.7315 84.0824 66.3795 92.1581C65.0269 100.234 63.721 107.386 63.4774 108.053C63.2333 108.719 62.4807 112.606 61.8041 116.69C61.1275 120.774 60.4412 124.568 60.2794 125.123C60.018 126.018 59.1203 126.131 52.2383 126.131C43.1273 126.131 43.9374 126.847 42.4789 117.494C41.9607 114.168 41.1402 109.504 40.6559 107.129C39.8613 103.233 38.0464 92.9279 33.0006 63.6557C32.0724 58.2719 31.1626 53.0246 30.9789 51.9956L30.6444 50.1243H37.8575C44.8714 50.1243 45.0775 50.16 45.3464 51.4198C46.2268 55.5495 46.9311 60.0569 47.979 68.2621C50.1872 85.5593 51.5277 94.7475 52.2636 97.6282L52.9989 100.507L53.7129 96.1887C54.105 93.8135 55.0516 88.6313 55.8152 84.6726C57.1153 77.9351 62.3177 50.5625 62.3511 50.2866C62.3903 49.9596 75.9586 49.883 76.3835 50.2072C76.6513 50.4116 77.3808 53.5209 78.0061 57.1168ZM142.691 81.3352C142.691 105.053 142.514 113.184 141.956 115.022C140.823 118.753 137.892 122.155 134.166 124.06C131.318 125.517 130.064 125.781 124.895 126.01C117.236 126.351 113.274 125.247 109.843 121.815C106.827 118.799 105.863 115.463 105.85 107.993L105.839 102.235L112.317 102.072L118.795 101.909V105.985C118.795 109.545 118.974 110.24 120.209 111.473C121.986 113.251 125.516 113.402 127.512 111.787L128.872 110.686L129.029 80.2614L129.188 49.8364L135.939 49.9538L142.691 50.0713V81.3352ZM175.8 80.9713C175.8 115.535 175.829 115.233 172.011 119.694C168.489 123.808 161.719 126.086 152.912 126.119L149.889 126.131V119.797C149.889 116.313 149.885 113.268 149.88 113.031C149.876 112.794 152.102 112.47 154.827 112.311C162.631 111.858 161.98 114.814 161.98 79.8105C161.98 63.5883 162.089 50.2083 162.221 50.0765C162.352 49.9446 165.462 49.8364 169.13 49.8364H175.8V80.9713ZM213.819 139.101C214.763 140.006 215.686 141.632 215.899 142.767C216.536 146.166 213.39 158.26 210.225 164.569C208.812 167.387 200.941 171.001 201.951 168.369C202.487 166.973 206.893 150.327 206.893 149.699C206.893 148.969 174.37 149.007 171.731 149.74C168.804 150.553 166.392 152.598 159.671 159.967C153.526 166.705 149.355 169.811 144.83 171.017C142.341 171.68 113.545 171.934 65.4265 171.718L43.4399 171.619L43.4192 158.232C43.3962 143.245 43.7538 140.251 45.7518 138.716C47.0399 137.727 50.6991 137.666 119.371 137.503C159.116 137.409 196.244 137.364 201.878 137.404L212.122 137.475L213.819 139.101ZM184.154 156.571C189.537 159.016 192.608 164.675 192.96 172.801C193.464 184.408 189.086 192.314 181.139 194.149C175.356 195.484 170.06 192.543 166.857 186.221C165.222 182.995 165.147 182.52 165.147 175.362C165.147 168.291 165.238 167.691 166.795 164.52C170.646 156.678 177.49 153.544 184.154 156.571ZM174.245 166.005C172.188 168.263 171.769 169.698 171.769 174.489C171.769 179.617 172.501 181.693 175.002 183.66C179.49 187.19 184.027 182.834 184.367 174.668C184.508 171.278 182.649 166.177 180.939 165.262C178.997 164.223 175.516 164.609 174.245 166.005ZM156.164 185.46C156.813 187.531 158.121 190.252 159.071 191.506C160.02 192.761 160.804 193.992 160.813 194.241C160.821 194.49 138.61 194.62 111.454 194.529C56.5447 194.345 60.28 194.622 55.5889 190.384C53.1331 188.166 51.2208 184.364 50.5759 180.419L50.1792 177.991L98.7386 177.822C144.557 177.663 147.46 177.593 150.176 176.575C151.76 175.982 153.315 175.258 153.631 174.965C154.008 174.617 154.341 175.688 154.595 178.065C154.808 180.062 155.514 183.39 156.164 185.46ZM113.613 200.665C113.613 201.616 111.06 204.945 109.937 205.456C108.667 206.035 108.555 206.461 108.331 211.587C108.051 217.985 107.275 219.507 103.237 221.57C100.768 222.832 100.231 222.866 82.7467 222.866H64.7925L64.7131 216.82L64.633 210.774H78.5082C86.972 210.774 92.8181 210.541 93.4976 210.178C94.9837 209.382 94.9665 206.242 93.4596 203.289C92.8262 202.047 92.308 200.891 92.308 200.72C92.308 200.549 97.1016 200.41 102.96 200.41C108.819 200.41 113.613 200.524 113.613 200.665Z" stroke="white" stroke-width="12" mask="url(#path-2-outside-1_1_130)"/>
</svg>
